<svg width="660" height="137" viewBox="0 0 660 137" fill="none" xmlns="http://www.w3.org/2000/svg">
<path d="M38.793 93.0764L12.4436 40.3597H28.1307L45.7786 77.665L62.9364 40.3597H77.0302L37.8125 125.978H23.7187L38.793 93.0764ZM80.5843 70.9379C80.5843 64.8222 81.9937 59.3182 84.8125 54.4257C87.6312 49.5331 91.5121 45.7211 96.4552 42.9894C101.398 40.2578 106.934 38.892 113.061 38.892C119.189 38.892 124.725 40.2578 129.668 42.9894C134.611 45.7211 138.492 49.5331 141.31 54.4257C144.129 59.3182 145.539 64.8222 145.539 70.9379C145.539 77.0535 144.129 82.5575 141.31 87.45C138.492 92.3426 134.611 96.1546 129.668 98.8863C124.725 101.618 119.189 102.984 113.061 102.984C106.934 102.984 101.398 101.618 96.4552 98.8863C91.5121 96.1546 87.6312 92.3426 84.8125 87.45C81.9937 82.5575 80.5843 77.0535 80.5843 70.9379ZM131.935 70.9379C131.935 65.2299 130.178 60.6025 126.665 57.0554C123.152 53.5083 118.617 51.7348 113.061 51.7348C107.506 51.7348 102.971 53.5083 99.4578 57.0554C95.9445 60.6025 94.1879 65.2299 94.1879 70.9379C94.1879 76.6458 95.9445 81.2732 99.4578 84.8203C102.971 88.3674 107.506 90.1409 113.061 90.1409C118.617 90.1409 123.152 88.3674 126.665 84.8203C130.178 81.2732 131.935 76.6458 131.935 70.9379ZM170.417 101.516H156.936V15.8972H170.417V101.516ZM181.815 70.9379C181.815 64.8222 183.224 59.3182 186.043 54.4257C188.862 49.5331 192.743 45.7211 197.686 42.9894C202.629 40.2578 208.164 38.892 214.292 38.892C220.42 38.892 225.955 40.2578 230.898 42.9894C235.841 45.7211 239.722 49.5331 242.541 54.4257C245.36 59.3182 246.769 64.8222 246.769 70.9379C246.769 77.0535 245.36 82.5575 242.541 87.45C239.722 92.3426 235.841 96.1546 230.898 98.8863C225.955 101.618 220.42 102.984 214.292 102.984C208.164 102.984 202.629 101.618 197.686 98.8863C192.743 96.1546 188.862 92.3426 186.043 87.45C183.224 82.5575 181.815 77.0535 181.815 70.9379ZM233.166 70.9379C233.166 65.2299 231.409 60.6025 227.896 57.0554C224.382 53.5083 219.848 51.7348 214.292 51.7348C208.736 51.7348 204.202 53.5083 200.688 57.0554C197.175 60.6025 195.419 65.2299 195.419 70.9379C195.419 76.6458 197.175 81.2732 200.688 84.8203C204.202 88.3674 208.736 90.1409 214.292 90.1409C219.848 90.1409 224.382 88.3674 227.896 84.8203C231.409 81.2732 233.166 76.6458 233.166 70.9379Z" fill="white"/>
<path d="M428.397 50.0224C432.318 42.6021 438.324 38.892 446.412 38.892C448.455 38.892 450.457 39.1366 452.417 39.6258V53.6918C449.966 53.121 447.719 52.8356 445.677 52.8356C439.794 52.8356 435.525 54.5887 432.87 58.095C430.215 61.6013 428.887 66.7384 428.887 73.5064V101.516H415.651V40.3597H428.397V50.0224ZM457.81 71.1825C457.81 65.1484 459.076 59.6851 461.609 54.7926C464.142 49.9001 467.737 46.0269 472.394 43.1729C477.051 40.3189 482.443 38.892 488.571 38.892C494.781 38.892 500.132 40.2578 504.626 42.9894C509.12 45.7211 512.531 49.5331 514.859 54.4257C517.188 59.3182 518.352 64.9037 518.352 71.1825V74.9742H471.291V75.0965C471.863 80.0705 473.905 83.903 477.419 86.5939C480.932 89.2847 485.017 90.6302 489.674 90.6302C496.782 90.6302 502.91 87.9801 508.057 82.6799L514.308 93.321C511.448 96.175 507.976 98.4989 503.891 100.293C499.805 102.087 495.108 102.984 489.797 102.984C483.342 102.984 477.705 101.659 472.884 99.0086C468.064 96.3585 464.346 92.628 461.732 87.817C459.117 83.006 457.81 77.4612 457.81 71.1825ZM503.891 64.9445C503.482 60.5413 501.95 57.0554 499.295 54.4868C496.639 51.9182 492.983 50.634 488.326 50.634C483.587 50.634 479.788 51.8775 476.928 54.3645C474.069 56.8515 472.231 60.3782 471.414 64.9445H503.891ZM542.986 83.6584V101.516H529.75V15.8972H542.986V67.0239L568.232 40.3597H586.248L559.776 66.9015L586.248 101.516H569.09L550.829 75.8304L542.986 83.6584ZM629.877 100.415C625.956 101.557 621.993 102.128 617.99 102.128C612.189 102.128 607.838 100.68 604.937 97.7855C602.037 94.8907 600.587 90.1817 600.587 83.6584V51.6125H588.944V40.3597H600.587V23.9698H613.823V40.3597H630V51.6125H613.823V82.8022C613.823 85.0038 614.333 86.6346 615.355 87.6947C616.376 88.7547 618.071 89.2847 620.441 89.2847C622.565 89.2847 625.71 88.9586 629.877 88.3062V100.415Z" fill="#2A6DFF"/>
<path fill-rule="evenodd" clip-rule="evenodd" d="M332.29 74.3877C338.181 74.3877 342.974 79.1715 342.974 85.0502C342.974 90.929 338.181 95.7128 332.29 95.7128C326.396 95.7128 321.605 90.929 321.605 85.0502C321.605 79.1715 326.396 74.3877 332.29 74.3877ZM332.29 88.6555C334.282 88.6555 335.901 87.0383 335.901 85.0502C335.901 83.0622 334.282 81.4449 332.29 81.4449C330.296 81.4449 328.676 83.0622 328.676 85.0502C328.676 87.0383 330.296 88.6555 332.29 88.6555Z" fill="#2A6DFF"/>
<path fill-rule="evenodd" clip-rule="evenodd" d="M300.655 17.6909C306.548 17.6909 311.339 22.4747 311.339 28.3534C311.339 34.2322 306.548 39.016 300.655 39.016C294.765 39.016 289.971 34.2322 289.971 28.3534C289.971 22.4747 294.765 17.6909 300.655 17.6909ZM300.655 31.9588C302.647 31.9588 304.268 30.3415 304.268 28.3534C304.268 26.3654 302.647 24.7481 300.655 24.7481C298.663 24.7481 297.045 26.3654 297.045 28.3534C297.045 30.3415 298.663 31.9588 300.655 31.9588Z" fill="#2A6DFF"/>
<path fill-rule="evenodd" clip-rule="evenodd" d="M346.023 29.6929C356.524 29.6929 365.066 38.2199 365.066 48.6999C365.066 59.18 356.524 67.705 346.023 67.705C335.522 67.705 326.98 59.18 326.98 48.6999C326.98 38.2199 335.522 29.6929 346.023 29.6929ZM346.023 60.6477C352.623 60.6477 357.994 55.2893 357.994 48.6999C357.994 42.1106 352.623 36.7521 346.023 36.7521C339.422 36.7521 334.051 42.1106 334.051 48.6999C334.051 55.2893 339.422 60.6477 346.023 60.6477Z" fill="#2A6DFF"/>
<path fill-rule="evenodd" clip-rule="evenodd" d="M328.742 3.97826C355.144 3.97826 378.869 21.6262 386.435 46.8964C391.041 62.2845 389.368 78.5404 381.725 92.6704C374.08 106.798 361.381 117.113 345.964 121.711C340.334 123.388 334.526 124.241 328.698 124.241C302.294 124.241 278.571 106.593 271.005 81.3206C266.397 65.9344 268.07 49.6824 275.715 35.5485C283.358 21.4185 296.059 11.1054 311.474 6.50799C317.105 4.82862 322.916 3.97826 328.742 3.97826ZM328.698 113.654C333.497 113.654 338.282 112.951 342.928 111.565C355.629 107.777 366.092 99.283 372.389 87.6381C378.688 75.997 380.066 62.6048 376.272 49.9289C370.038 29.1086 350.493 14.5651 328.742 14.5651C323.945 14.5651 319.156 15.2679 314.512 16.6541C301.809 20.44 291.347 28.9358 285.048 40.5808C278.75 52.2218 277.372 65.6141 281.168 78.288C287.402 99.1102 306.947 113.654 328.698 113.654Z" fill="#2A6DFF"/>
<path fill-rule="evenodd" clip-rule="evenodd" d="M350.215 92.117C350.215 89.4844 352.353 87.3487 354.992 87.3487C357.63 87.3487 359.768 89.4844 359.768 92.117C359.768 94.7496 357.63 96.8833 354.992 96.8833C352.353 96.8833 350.215 94.7496 350.215 92.117Z" fill="#2A6DFF"/>
<path fill-rule="evenodd" clip-rule="evenodd" d="M312.001 46.8284C312.001 44.1938 314.139 42.0602 316.779 42.0602C319.417 42.0602 321.554 44.1938 321.554 46.8284C321.554 49.461 319.417 51.5947 316.779 51.5947C314.139 51.5947 312.001 49.461 312.001 46.8284Z" fill="#2A6DFF"/>
<path fill-rule="evenodd" clip-rule="evenodd" d="M293.361 83.5182C293.361 80.9186 295.471 78.8121 298.074 78.8121C300.679 78.8121 302.79 80.9186 302.79 83.5182C302.79 86.1159 300.679 88.2224 298.074 88.2224C295.471 88.2224 293.361 86.1159 293.361 83.5182Z" fill="#2A6DFF"/>
<g style="mix-blend-mode:color">
<rect y="0.978271" width="660" height="136.022" fill="#414141"/>
</g>
</svg>
