<?xml version="1.0" standalone="no"?>
<!DOCTYPE svg PUBLIC "-//W3C//DTD SVG 20010904//EN"
 "http://www.w3.org/TR/2001/REC-SVG-20010904/DTD/svg10.dtd">
<svg version="1.0" xmlns="http://www.w3.org/2000/svg"
 width="97.000000pt" height="97.000000pt" viewBox="0 0 97.000000 97.000000"
 preserveAspectRatio="xMidYMid meet">
<metadata>
Created by potrace 1.11, written by Peter Selinger 2001-2013
</metadata>
<g transform="translate(0.000000,97.000000) scale(0.100000,-0.100000)"
fill="#000000" stroke="none">
<path d="M439 862 l-56 -3 -86 -232 c-48 -128 -97 -261 -110 -297 -14 -36 -38
-102 -55 -148 l-31 -82 98 1 99 1 22 74 22 74 143 0 143 0 24 -72 25 -73 96
-3 c53 -1 97 -1 97 2 0 5 -255 697 -270 734 -6 13 -19 22 -32 23 -13 0 -34 1
-48 2 -14 1 -50 1 -81 -1z m58 -174 c1 -7 19 -73 42 -147 23 -74 39 -136 37
-138 -4 -4 -177 -6 -180 -1 -2 2 17 69 42 151 40 132 57 171 59 135z"/>
</g>
</svg>
