<?xml version="1.0" standalone="no"?>
<!DOCTYPE svg PUBLIC "-//W3C//DTD SVG 20010904//EN"
 "http://www.w3.org/TR/2001/REC-SVG-20010904/DTD/svg10.dtd">
<svg version="1.0" xmlns="http://www.w3.org/2000/svg"
 width="293.000000pt" height="293.000000pt" viewBox="0 0 293.000000 293.000000"
 preserveAspectRatio="xMidYMid meet">
<metadata>
Created by potrace 1.11, written by Peter Selinger 2001-2013
</metadata>
<g transform="translate(0.000000,293.000000) scale(0.100000,-0.100000)"
fill="#000000" stroke="none">
<path d="M1086 2711 c-67 -176 -157 -417 -159 -426 -1 -5 -8 -23 -14 -40 -7
-16 -56 -147 -109 -290 -144 -391 -282 -761 -312 -840 -14 -38 -27 -72 -27
-75 0 -3 -6 -18 -12 -35 -18 -43 -228 -610 -273 -737 l-39 -107 331 2 332 2
33 110 c19 61 46 148 60 195 14 47 34 110 44 140 l18 55 496 1 497 1 10 -26
c5 -14 11 -30 12 -36 1 -5 35 -108 75 -227 l72 -217 330 1 c297 1 330 3 326
17 -5 20 -345 939 -357 966 -5 11 -64 169 -131 350 -67 182 -150 407 -184 500
-35 94 -108 292 -163 440 -55 149 -106 286 -115 307 l-15 36 -351 0 -350 0
-25 -67z m533 -951 c83 -272 157 -514 165 -537 8 -24 12 -44 8 -44 -26 -5
-662 -3 -662 1 0 6 128 429 182 605 12 39 23 75 24 80 3 15 114 377 121 395 7
19 -13 78 162 -500z"/>
</g>
</svg>
