<?xml version="1.0" encoding="utf-8"?>
<!-- Generator: Adobe Illustrator 22.0.0, SVG Export Plug-In . SVG Version: 6.00 Build 0)  -->
<svg version="1.1" id="Layer_1" xmlns="http://www.w3.org/2000/svg" xmlns:xlink="http://www.w3.org/1999/xlink" x="0px" y="0px"
	 viewBox="0 0 121 31.5" style="enable-background:new 0 0 121 31.5;" xml:space="preserve">
<style type="text/css">
	.st0{fill:#432DE0;}
	.st1{fill:#27E774;}
</style>
<rect x="886.2" y="-704.9" class="st0" width="15" height="15"/>
<g>
	<path d="M1261.5-941.7h-7.1l-1.1,3.6h-4.7l6.9-18.6h5l6.9,18.6h-4.7L1261.5-941.7z M1255.6-945.4h4.8l-2.4-7.9L1255.6-945.4z"/>
	<path d="M1269.4-957.9h4.5v7.1c0.4-0.4,0.9-0.7,1.4-1c0.6-0.3,1.2-0.4,2.1-0.4s1.7,0.2,2.4,0.5c0.7,0.3,1.3,0.8,1.9,1.5
		c0.5,0.6,0.9,1.4,1.2,2.2c0.3,0.9,0.4,1.8,0.4,2.8s-0.2,1.9-0.5,2.8c-0.3,0.9-0.8,1.7-1.5,2.3c-0.7,0.7-1.5,1.2-2.5,1.6
		c-1,0.4-2.1,0.6-3.5,0.6c-1.1,0-2.2-0.1-3.2-0.4c-1-0.2-1.9-0.6-2.8-1L1269.4-957.9L1269.4-957.9z M1276.1-948.7
		c-0.8,0-1.6,0.3-2.2,0.8v6.5c0.2,0.1,0.4,0.2,0.7,0.2c0.3,0.1,0.6,0.1,0.9,0.1c0.6,0,1.1-0.1,1.5-0.3s0.8-0.5,1-0.8
		c0.3-0.4,0.5-0.8,0.6-1.2c0.1-0.5,0.2-1,0.2-1.5c0-1.1-0.2-2-0.7-2.7C1277.7-948.4,1277-948.7,1276.1-948.7z"/>
	<path d="M1294.6-951.8l-0.1,3.8h-0.5c-1.8,0-3,0.4-3.8,1.3v8.5h-4.5v-9.4c0-2.4,1.9-4.3,4.3-4.3l0,0l0,0h1.3L1294.6-951.8z"/>
	<path d="M1296.3-938.1v-13.7h4.5v13.7H1296.3z"/>
	<path d="M1317.1-938.1h-4.3v-1.7c-0.4,0.6-1,1.1-1.7,1.5s-1.5,0.5-2.5,0.5c-0.8,0-1.5-0.2-2.2-0.5s-1.3-0.8-1.8-1.4
		c-0.5-0.6-0.9-1.3-1.2-2.2c-0.3-0.9-0.4-1.8-0.4-2.9c0-1.2,0.2-2.2,0.6-3.2c0.4-0.9,0.9-1.7,1.5-2.3s1.4-1.1,2.3-1.4
		c0.9-0.3,1.8-0.5,2.7-0.5c0.5,0,0.9,0,1.3,0.1s0.7,0.1,1,0.2v-6.1h4.5v19.9H1317.1z M1310.3-941.2c1,0,1.7-0.3,2.3-1v-6.3
		c-0.4-0.1-0.9-0.2-1.6-0.2c-1.1,0-2,0.3-2.5,1c-0.6,0.7-0.8,1.6-0.8,2.8c0,1.1,0.2,1.9,0.6,2.6S1309.4-941.2,1310.3-941.2z"/>
	<path d="M1333.2-951.8v2.9h-2l0,0c0.2,0.6,0.3,1.1,0.3,1.6c0,0.6-0.1,1.2-0.4,1.8s-0.6,1.1-1.1,1.5s-1.1,0.8-1.8,1
		c-0.7,0.2-1.6,0.4-2.6,0.4h-0.2c-0.1,0.1-0.1,0.3-0.2,0.4c0,0.1-0.1,0.3-0.1,0.4c0,0.3,0.1,0.5,0.3,0.6c0.2,0.1,0.4,0.2,0.7,0.2
		l2.4,0.1c1.4,0.1,2.5,0.5,3.3,1.1s1.2,1.6,1.2,2.8c0,0.9-0.2,1.6-0.7,2.3c-0.5,0.6-1.1,1.2-1.8,1.6c-0.8,0.4-1.6,0.7-2.6,1
		c-1,0.2-1.9,0.3-2.9,0.3c-0.8,0-1.5-0.1-2.3-0.2c-0.7-0.1-1.4-0.3-2-0.6s-1-0.6-1.4-1.1c-0.4-0.4-0.5-1-0.5-1.7
		c0-0.4,0.1-0.8,0.3-1.1s0.4-0.6,0.8-0.9s0.7-0.4,1.1-0.6c0.4-0.2,0.8-0.3,1.3-0.4c-0.8-0.4-1.2-1-1.2-1.9c0-0.4,0.1-0.7,0.2-1
		s0.3-0.5,0.5-0.7s0.4-0.4,0.7-0.6s0.5-0.3,0.7-0.4c-1.2-0.3-2.1-0.9-2.7-1.6c-0.6-0.8-0.9-1.7-0.9-2.7c0-0.7,0.1-1.3,0.4-1.9
		s0.6-1.1,1.1-1.5s1.1-0.8,1.8-1c0.7-0.2,1.6-0.4,2.6-0.4c0.4,0,0.8,0,1.2,0.1c0.4,0,0.7,0.1,1,0.2L1333.2-951.8L1333.2-951.8z
		 M1324.3-938.1c-0.2,0.2-0.5,0.4-0.7,0.6c-0.2,0.2-0.4,0.6-0.4,1c0,0.5,0.2,0.9,0.7,1.1c0.4,0.2,1,0.4,1.8,0.4c0.4,0,0.8,0,1.2-0.1
		c0.4-0.1,0.8-0.2,1.1-0.4c0.3-0.2,0.6-0.3,0.8-0.6c0.2-0.2,0.3-0.5,0.3-0.7c0-0.3-0.1-0.6-0.4-0.7c-0.2-0.1-0.6-0.2-1.1-0.3
		L1324.3-938.1z M1325.6-945.5c0.7,0,1.1-0.2,1.5-0.5c0.3-0.3,0.5-0.8,0.5-1.4c0-0.6-0.2-1.1-0.5-1.4s-0.8-0.5-1.5-0.5
		s-1.1,0.2-1.5,0.5s-0.5,0.8-0.5,1.4c0,0.6,0.2,1.1,0.5,1.4C1324.5-945.7,1325-945.5,1325.6-945.5z"/>
	<path d="M1341.3-952.1c1.8,0,3.2,0.5,4.3,1.6c1,1.1,1.6,2.5,1.6,4.4c0,0.7-0.1,1.5-0.3,2.3h-8c0,0.8,0.3,1.5,0.9,2
		c0.5,0.5,1.3,0.8,2.5,0.8c0.7,0,1.4-0.1,2.1-0.2c0.7-0.1,1.4-0.3,1.9-0.5l0.6,2.9c-0.7,0.4-1.5,0.6-2.4,0.8s-1.8,0.3-2.8,0.3
		c-1.2,0-2.2-0.2-3.2-0.5c-0.9-0.3-1.7-0.8-2.3-1.4c-0.6-0.6-1.1-1.4-1.4-2.2c-0.3-0.9-0.5-1.8-0.5-2.9c0-1.1,0.2-2.1,0.5-3
		s0.8-1.7,1.4-2.3s1.3-1.1,2.2-1.4C1339.3-951.9,1340.3-952.1,1341.3-952.1z M1341.2-949.3c-0.7,0-1.3,0.2-1.6,0.7
		c-0.4,0.5-0.6,1.1-0.6,1.9h4c0-0.1,0.1-0.3,0.1-0.5c0-0.6-0.2-1.1-0.5-1.5C1342.2-949.1,1341.8-949.3,1341.2-949.3z"/>
	<path d="M1362.8-938.1h-4.3v-1.7c-0.4,0.6-1,1.1-1.7,1.5s-1.5,0.5-2.5,0.5c-0.8,0-1.5-0.2-2.2-0.5s-1.3-0.8-1.8-1.4
		c-0.5-0.6-0.9-1.3-1.2-2.2c-0.3-0.9-0.4-1.8-0.4-2.9c0-1.2,0.2-2.2,0.6-3.2c0.4-0.9,0.9-1.7,1.5-2.3s1.4-1.1,2.3-1.4
		c0.9-0.3,1.8-0.5,2.7-0.5c0.5,0,0.9,0,1.3,0.1s0.7,0.1,1,0.2v-6.1h4.5v19.9H1362.8z M1356-941.2c1,0,1.7-0.3,2.3-1v-6.3
		c-0.4-0.1-0.9-0.2-1.6-0.2c-1.1,0-2,0.3-2.5,1c-0.6,0.7-0.8,1.6-0.8,2.8c0,1.1,0.2,1.9,0.6,2.6S1355.1-941.2,1356-941.2z"/>
</g>
<g>
	<path d="M1262.2-589.8h-7.1l-1.1,3.6h-4.7l6.9-18.6h5l6.9,18.6h-4.7L1262.2-589.8z M1256.3-593.4h4.8l-2.4-7.9L1256.3-593.4z"/>
	<path d="M1269.4-606h4.5v7.1c0.4-0.4,0.9-0.7,1.4-1c0.6-0.3,1.2-0.4,2.1-0.4s1.7,0.2,2.4,0.5c0.7,0.3,1.3,0.8,1.9,1.5
		c0.5,0.6,0.9,1.4,1.2,2.2c0.3,0.9,0.4,1.8,0.4,2.8s-0.2,1.9-0.5,2.8c-0.3,0.9-0.8,1.7-1.5,2.3c-0.7,0.7-1.5,1.2-2.5,1.6
		c-1,0.4-2.1,0.6-3.5,0.6c-1.1,0-2.2-0.1-3.2-0.4c-1-0.2-1.9-0.6-2.8-1L1269.4-606L1269.4-606z M1276.1-596.8
		c-0.8,0-1.6,0.3-2.2,0.8v6.5c0.2,0.1,0.4,0.2,0.7,0.2c0.3,0.1,0.6,0.1,0.9,0.1c0.6,0,1.1-0.1,1.5-0.3s0.8-0.5,1-0.8
		c0.3-0.4,0.5-0.8,0.6-1.2c0.1-0.5,0.2-1,0.2-1.5c0-1.1-0.2-2-0.7-2.7C1277.7-596.4,1277-596.8,1276.1-596.8z"/>
	<path d="M1294.9-586.2v-8.3l4.3-5.1c0.1-0.1,0.2,0,0.2,0.1v13.3H1294.9z"/>
	<path d="M1315-586.2h-4.3v-1.7c-0.4,0.6-1,1.1-1.7,1.5s-1.5,0.5-2.5,0.5c-0.8,0-1.5-0.2-2.2-0.5s-1.3-0.8-1.8-1.4
		c-0.5-0.6-0.9-1.3-1.2-2.2c-0.3-0.9-0.4-1.8-0.4-2.9c0-1.2,0.2-2.2,0.6-3.2c0.4-0.9,0.9-1.7,1.5-2.3s1.4-1.1,2.3-1.4
		c0.9-0.3,1.8-0.5,2.7-0.5c0.5,0,0.9,0,1.3,0.1s0.7,0.1,1,0.2v-6.1h4.5v19.9H1315z M1308.2-589.3c1,0,1.7-0.3,2.3-1v-6.3
		c-0.4-0.1-0.9-0.2-1.6-0.2c-1.1,0-2,0.3-2.5,1c-0.6,0.7-0.8,1.6-0.8,2.8c0,1.1,0.2,1.9,0.6,2.6S1307.3-589.3,1308.2-589.3z"/>
	<path d="M1330.4-599.9v2.9h-2l0,0c0.2,0.6,0.3,1.1,0.3,1.6c0,0.6-0.1,1.2-0.4,1.8s-0.6,1.1-1.1,1.5s-1.1,0.8-1.8,1
		c-0.7,0.2-1.6,0.4-2.6,0.4h-0.2c-0.1,0.1-0.1,0.3-0.2,0.4c0,0.1-0.1,0.3-0.1,0.4c0,0.3,0.1,0.5,0.3,0.6c0.2,0.1,0.4,0.2,0.7,0.2
		l2.4,0.1c1.4,0.1,2.5,0.5,3.3,1.1s1.2,1.6,1.2,2.8c0,0.9-0.2,1.6-0.7,2.3c-0.5,0.6-1.1,1.2-1.8,1.6c-0.8,0.4-1.6,0.7-2.6,1
		c-1,0.2-1.9,0.3-2.9,0.3c-0.8,0-1.5-0.1-2.3-0.2c-0.7-0.1-1.4-0.3-2-0.6s-1-0.6-1.4-1.1c-0.4-0.4-0.5-1-0.5-1.7
		c0-0.4,0.1-0.8,0.3-1.1s0.4-0.6,0.8-0.9s0.7-0.4,1.1-0.6c0.4-0.2,0.8-0.3,1.3-0.4c-0.8-0.4-1.2-1-1.2-1.9c0-0.4,0.1-0.7,0.2-1
		s0.3-0.5,0.5-0.7s0.4-0.4,0.7-0.6s0.5-0.3,0.7-0.4c-1.2-0.3-2.1-0.9-2.7-1.6c-0.6-0.8-0.9-1.7-0.9-2.7c0-0.7,0.1-1.3,0.4-1.9
		s0.6-1.1,1.1-1.5s1.1-0.8,1.8-1c0.7-0.2,1.6-0.4,2.6-0.4c0.4,0,0.8,0,1.2,0.1c0.4,0,0.7,0.1,1,0.2L1330.4-599.9L1330.4-599.9z
		 M1321.5-586.1c-0.2,0.2-0.5,0.4-0.7,0.6c-0.2,0.2-0.4,0.6-0.4,1c0,0.5,0.2,0.9,0.7,1.1c0.4,0.2,1,0.4,1.8,0.4c0.4,0,0.8,0,1.2-0.1
		c0.4-0.1,0.8-0.2,1.1-0.4c0.3-0.2,0.6-0.3,0.8-0.6c0.2-0.2,0.3-0.5,0.3-0.7c0-0.3-0.1-0.6-0.4-0.7c-0.2-0.1-0.6-0.2-1.1-0.3
		L1321.5-586.1z M1322.8-593.6c0.7,0,1.1-0.2,1.5-0.5c0.3-0.3,0.5-0.8,0.5-1.4c0-0.6-0.2-1.1-0.5-1.4s-0.8-0.5-1.5-0.5
		s-1.1,0.2-1.5,0.5s-0.5,0.8-0.5,1.4c0,0.6,0.2,1.1,0.5,1.4C1321.7-593.7,1322.2-593.6,1322.8-593.6z"/>
	<path d="M1337.8-600.2c1.8,0,3.2,0.5,4.3,1.6c1,1.1,1.6,2.5,1.6,4.4c0,0.7-0.1,1.5-0.3,2.3h-8c0,0.8,0.3,1.5,0.9,2
		c0.5,0.5,1.3,0.8,2.5,0.8c0.7,0,1.4-0.1,2.1-0.2c0.7-0.1,1.4-0.3,1.9-0.5l0.6,2.9c-0.7,0.4-1.5,0.6-2.4,0.8s-1.8,0.3-2.8,0.3
		c-1.2,0-2.2-0.2-3.2-0.5c-0.9-0.3-1.7-0.8-2.3-1.4c-0.6-0.6-1.1-1.4-1.4-2.2c-0.3-0.9-0.5-1.8-0.5-2.9c0-1.1,0.2-2.1,0.5-3
		s0.8-1.7,1.4-2.3s1.3-1.1,2.2-1.4C1335.8-600,1336.8-600.2,1337.8-600.2z M1337.7-597.3c-0.7,0-1.3,0.2-1.6,0.7
		c-0.4,0.5-0.6,1.1-0.6,1.9h4c0-0.1,0.1-0.3,0.1-0.5c0-0.6-0.2-1.1-0.5-1.5C1338.7-597.1,1338.3-597.3,1337.7-597.3z"/>
	<path d="M1358.6-586.2h-4.3v-1.7c-0.4,0.6-1,1.1-1.7,1.5s-1.5,0.5-2.5,0.5c-0.8,0-1.5-0.2-2.2-0.5s-1.3-0.8-1.8-1.4
		c-0.5-0.6-0.9-1.3-1.2-2.2c-0.3-0.9-0.4-1.8-0.4-2.9c0-1.2,0.2-2.2,0.6-3.2c0.4-0.9,0.9-1.7,1.5-2.3s1.4-1.1,2.3-1.4
		c0.9-0.3,1.8-0.5,2.7-0.5c0.5,0,0.9,0,1.3,0.1s0.7,0.1,1,0.2v-6.1h4.5v19.9H1358.6z M1351.8-589.3c1,0,1.7-0.3,2.3-1v-6.3
		c-0.4-0.1-0.9-0.2-1.6-0.2c-1.1,0-2,0.3-2.5,1c-0.6,0.7-0.8,1.6-0.8,2.8c0,1.1,0.2,1.9,0.6,2.6S1350.9-589.3,1351.8-589.3z"/>
	<path d="M1292.4-596L1292.4-596c-1.9,0-2.1,0.6-2.8,1.5v8.3h-4.5v-9.4c0-2.4,1.9-4.3,4.3-4.3l0,0l0,0h1.3h5.1L1292.4-596z"/>
</g>
<g>
	<path d="M1258.2-485.6h-7.1l-1.1,3.6h-4.7l6.9-18.6h5l6.9,18.6h-4.7L1258.2-485.6z M1252.2-489.3h4.8l-2.4-7.9L1252.2-489.3z"/>
	<path d="M1265.4-501.8h4.5v7.1c0.4-0.4,0.9-0.7,1.4-1c0.6-0.3,1.2-0.4,2.1-0.4s1.7,0.2,2.4,0.5c0.7,0.3,1.3,0.8,1.9,1.5
		c0.5,0.6,0.9,1.4,1.2,2.2c0.3,0.9,0.4,1.8,0.4,2.8s-0.2,1.9-0.5,2.8s-0.8,1.7-1.5,2.3c-0.7,0.7-1.5,1.2-2.5,1.6s-2.1,0.6-3.5,0.6
		c-1.1,0-2.2-0.1-3.2-0.4c-1-0.2-1.9-0.6-2.8-1L1265.4-501.8L1265.4-501.8z M1272-492.6c-0.8,0-1.6,0.3-2.2,0.8v6.5
		c0.2,0.1,0.4,0.2,0.7,0.2c0.3,0.1,0.6,0.1,0.9,0.1c0.6,0,1.1-0.1,1.5-0.3c0.4-0.2,0.8-0.5,1-0.8c0.3-0.4,0.5-0.8,0.6-1.2
		c0.1-0.5,0.2-1,0.2-1.5c0-1.1-0.2-2-0.7-2.7C1273.7-492.3,1273-492.6,1272-492.6z"/>
	<path d="M1290.9-482v-8.3l4.3-5.1c0.1-0.1,0.2,0,0.2,0.1v13.3H1290.9z"/>
	<path d="M1311-482h-4.3v-1.7c-0.4,0.6-1,1.1-1.7,1.5s-1.5,0.5-2.5,0.5c-0.8,0-1.5-0.2-2.2-0.5s-1.3-0.8-1.8-1.4s-0.9-1.3-1.2-2.2
		c-0.3-0.9-0.4-1.8-0.4-2.9c0-1.2,0.2-2.2,0.6-3.2c0.4-0.9,0.9-1.7,1.5-2.3c0.6-0.6,1.4-1.1,2.3-1.4s1.8-0.5,2.7-0.5
		c0.5,0,0.9,0,1.3,0.1s0.7,0.1,1,0.2v-6.1h4.5v19.9H1311z M1304.2-485.1c1,0,1.7-0.3,2.3-1v-6.3c-0.4-0.1-0.9-0.2-1.6-0.2
		c-1.1,0-2,0.3-2.5,1c-0.6,0.7-0.8,1.6-0.8,2.8c0,1.1,0.2,1.9,0.6,2.6S1303.3-485.1,1304.2-485.1z"/>
	<path d="M1315.6-482.4c-0.8-0.4-1.2-1-1.2-1.9c0-0.4,0.1-0.7,0.2-1s0.3-0.5,0.5-0.7s0.4-0.4,0.7-0.6s0.5-0.3,0.7-0.4
		c-1.2-0.3-2.1-0.9-2.7-1.6c-0.6-0.8-0.9-1.7-0.9-2.7c0-0.7,0.1-1.3,0.4-1.9s0.6-1.1,1.1-1.5s1.1-0.8,1.8-1c0.7-0.2,1.6-0.4,2.6-0.4
		c0.4,0,0.8,0,1.2,0.1c0.4,0,0.7,0.1,1,0.2h5.5v2.9h-2l0,0c0.2,0.6,0.3,1.1,0.3,1.6c0,0.6-0.1,1.2-0.4,1.8s-0.6,1.1-1.1,1.5
		s-1.1,0.8-1.8,1c-0.7,0.2-1.6,0.4-2.6,0.4h-0.2c-0.1,0.1-0.1,0.3-0.2,0.4c0,0.1-0.1,0.3-0.1,0.4c0,0.3,0.1,0.5,0.3,0.6
		c0.2,0.1,0.4,0.2,0.7,0.2l2.4,0.1c1.4,0.1,2.5,0.5,3.3,1.1s1.2,1.6,1.2,2.8c0,0.9-0.2,1.6-0.7,2.3c-0.5,0.6-1.1,1.2-1.8,1.6
		c-0.8,0.4-1.6,0.7-2.6,1c-1,0.2-70,0.3-71,0.3c-0.8,0-1.5-0.1-2.3-0.2c-0.7-0.1-1.4-0.3-2-0.6c-0.6-0.3-1-0.6-1.4-1.1
		c-0.4-0.4-0.5-0.9-0.5-1.6c0,0,0,0.2,0.1-0.1h5.1h0.3c0,0,0.4,0,1.1,0c0.4,0,68.9-0.1,69.3-0.1s0.7,0,1.1,0
		c0.4-0.1,0.6-0.2,0.8-0.4c0.2-0.2,0.3-0.5,0.3-0.7c0-0.3-0.1-0.6-0.4-0.7c-0.2-0.1-0.6-0.2-1.1-0.3l-3.3-0.3 M1318.8-489.4
		c0.7,0,1.1-0.2,1.5-0.5c0.3-0.3,0.5-0.8,0.5-1.4s-0.2-1.1-0.5-1.4s-0.8-0.5-1.5-0.5s-1.1,0.2-1.5,0.5s-0.5,0.8-0.5,1.4
		s0.2,1.1,0.5,1.4C1317.6-489.6,1318.1-489.4,1318.8-489.4z"/>
	<path d="M1330.9-479.4c0.8,0,18.1,0,18.1,0h0.3h5.1c0.2,0.3,0.1,0.1,0.1,0.1c0,0.7-0.1,1.1-0.5,1.6c-0.4,0.4-0.8,0.8-1.4,1.1
		c-0.6,0.3-1.2,0.5-2,0.6c-0.7,0.1-21.8,0.2-22.6,0.2L1330.9-479.4z"/>
	<path d="M1333.8-496c1.8,0,3.2,0.5,4.3,1.6c1,1.1,1.6,2.5,1.6,4.4c0,0.7-0.1,1.5-0.3,2.3h-8c0,0.8,0.3,1.5,0.9,2
		c0.5,0.5,1.3,0.8,2.5,0.8c0.7,0,1.4-0.1,2.1-0.2s1.4-0.3,1.9-0.5l0.6,2.9c-0.7,0.4-1.5,0.6-2.4,0.8c-0.9,0.2-1.8,0.3-2.8,0.3
		c-1.2,0-2.2-0.2-3.2-0.5c-0.9-0.3-1.7-0.8-2.3-1.4c-0.6-0.6-1.1-1.4-1.4-2.2c-0.3-0.9-0.5-1.8-0.5-2.9s0.2-2.1,0.5-3
		s0.8-1.7,1.4-2.3c0.6-0.6,1.3-1.1,2.2-1.4C1331.8-495.8,1332.7-496,1333.8-496z M1333.7-493.2c-0.7,0-1.3,0.2-1.6,0.7
		c-0.4,0.5-0.6,1.1-0.6,1.9h4c0-0.1,0.1-0.3,0.1-0.5c0-0.6-0.2-1.1-0.5-1.5C1334.7-493,1334.3-493.2,1333.7-493.2z"/>
	<path d="M1354.6-482h-4.3v-1.7c-0.4,0.6-1,1.1-1.7,1.5s-1.5,0.5-2.5,0.5c-0.8,0-1.5-0.2-2.2-0.5s-1.3-0.8-1.8-1.4s-0.9-1.3-1.2-2.2
		c-0.3-0.9-0.4-1.8-0.4-2.9c0-1.2,0.2-2.2,0.6-3.2c0.4-0.9,0.9-1.7,1.5-2.3c0.6-0.6,1.4-1.1,2.3-1.4s1.8-0.5,2.7-0.5
		c0.5,0,0.9,0,1.3,0.1s0.7,0.1,1,0.2v-6.1h4.5v19.9H1354.6z M1347.8-485.1c1,0,1.7-0.3,2.3-1v-6.3c-0.4-0.1-0.9-0.2-1.6-0.2
		c-1.1,0-2,0.3-2.5,1c-0.6,0.7-0.8,1.6-0.8,2.8c0,1.1,0.2,1.9,0.6,2.6S1346.9-485.1,1347.8-485.1z"/>
	<path d="M1288.4-491.8L1288.4-491.8c-1.9,0-2.1,0.6-2.8,1.5v8.3h-4.5v-9.4c0-2.4,1.9-4.3,4.3-4.3l0,0l0,0h1.3h4.9L1288.4-491.8z"/>
</g>
<text transform="matrix(1 0 0 1 1248.4941 -831.2811)" style="font-family:'Seravek-Bold'; font-size:28px;">seravek </text>
<text transform="matrix(1 0 0 1 1248.4941 -797.681)" style="font-family:'Seravek-Bold'; font-size:28px;">-25 leading</text>
<path d="M1315.6-482.4c0,0,0.5,0.3,1.9,0.5"/>
<g>
	<path d="M19.3,18.7h-7.1l-1.1,3.6H6.4l6.9-18.6h5l6.9,18.6h-4.7L19.3,18.7z M13.4,15.1h4.8l-2.4-7.9L13.4,15.1z"/>
	<path d="M26.5,2.6H31v7.1c0.4-0.4,0.9-0.7,1.4-1c0.6-0.3,1.2-0.4,2.1-0.4c0.9,0,1.7,0.2,2.4,0.5s1.3,0.8,1.9,1.5
		c0.5,0.6,0.9,1.4,1.2,2.2c0.3,0.9,0.4,1.8,0.4,2.8s-0.2,1.9-0.5,2.8s-0.8,1.7-1.5,2.3c-0.7,0.7-1.5,1.2-2.5,1.6s-2.1,0.6-3.5,0.6
		c-1.1,0-2.2-0.1-3.2-0.4c-1-0.2-1.9-0.6-2.8-1L26.5,2.6L26.5,2.6z M33.2,11.8c-0.8,0-1.6,0.3-2.2,0.8v6.5c0.2,0.1,0.4,0.2,0.7,0.2
		c0.3,0.1,0.6,0.1,0.9,0.1c0.6,0,1.1-0.1,1.5-0.3c0.4-0.2,0.8-0.5,1-0.8c0.3-0.4,0.5-0.8,0.6-1.2c0.1-0.5,0.2-1,0.2-1.5
		c0-1.1-0.2-2-0.7-2.7C34.8,12.1,34.1,11.8,33.2,11.8z"/>
	<path d="M72.1,22.4h-4.3v-1.7c-0.4,0.6-1,1.1-1.7,1.5s-1.5,0.5-2.5,0.5c-0.8,0-1.5-0.2-2.2-0.5s-1.3-0.8-1.8-1.4s-0.9-1.3-1.2-2.2
		c-0.3-0.9-0.4-1.8-0.4-2.9c0-1.2,0.2-2.2,0.6-3.2c0.4-0.9,0.9-1.7,1.5-2.3c0.6-0.6,1.4-1.1,2.3-1.4s1.8-0.5,2.7-0.5
		c0.5,0,0.9,0,1.3,0.1s0.7,0.1,1,0.2V2.5h4.5v19.9H72.1z M65.3,19.2c1,0,1.7-0.3,2.3-1v-6.3c-0.4-0.1-0.9-0.2-1.6-0.2
		c-1.1,0-2,0.3-2.5,1c-0.6,0.7-0.8,1.6-0.8,2.8c0,1.1,0.2,1.9,0.6,2.6S64.4,19.2,65.3,19.2z"/>
	<path d="M76.7,21.9c-0.8-0.4-1.2-1-1.2-1.9c0-0.4,0.1-0.7,0.2-1s0.3-0.5,0.5-0.7s0.4-0.4,0.7-0.6s0.5-0.3,0.7-0.4
		c-1.2-0.3-2.1-0.9-2.7-1.6C74.3,14.9,74,14,74,13c0-0.7,0.1-1.3,0.4-1.9S75,10,75.5,9.6s1.1-0.8,1.8-1c0.7-0.2,1.6-0.4,2.6-0.4
		c0.4,0,0.8,0,1.2,0.1c0.4,0,0.7,0.1,1,0.2h5.5v3h-2l0,0c0.2,0.6,0.3,1.1,0.3,1.6c0,0.6-0.1,1.2-0.4,1.8s-0.6,1.1-1.1,1.5
		s-1.1,0.8-1.8,1c-0.7,0.2-1.6,0.4-2.6,0.4h-0.2c-0.1,0.1-0.1,0.3-0.2,0.4c0,0.1-0.1,0.3-0.1,0.4c0,0.3,0.1,0.5,0.3,0.6
		c0.2,0.1,0.4,0.2,0.7,0.2l2.4,0.1c1.4,0.1,2.5,0.5,3.3,1.1s1.2,1.6,1.2,2.8c0,0.9-0.2,1.6-0.7,2.3c-0.5,0.6-1.1,1.2-1.8,1.6
		c-0.8,0.4-1.6,0.7-2.6,1c-1,0.2-70,0.3-71,0.3c-0.8,0-1.5-0.1-2.3-0.2c-0.7-0.1-1.4-0.3-2-0.6c-0.6-0.3-1-0.6-1.4-1.1
		c-0.4-0.4-0.5-0.9-0.5-1.6c0,0,0,0.2,0.1-0.1h5.1h0.3c0,0,0.4,0,1.1,0c0.4,0,68.9-0.1,69.3-0.1s0.7,0,1.1,0
		c0.4-0.1,0.6-0.2,0.8-0.4c0.2-0.2,0.3-0.5,0.3-0.7c0-0.3-0.1-0.6-0.4-0.7c-0.2-0.1-0.6-0.2-1.1-0.3l-3.3-0.3 M79.9,15
		c0.7,0,1.1-0.2,1.5-0.5c0.3-0.3,0.5-0.8,0.5-1.4s-0.2-1.1-0.5-1.4s-0.8-0.5-1.5-0.5s-1.1,0.2-1.5,0.5s-0.5,0.8-0.5,1.4
		s0.2,1.1,0.5,1.4C78.8,14.8,79.3,15,79.9,15z"/>
	<path d="M93.1,24.9c0.8,0,17.1,0,17.1,0h0.3h5.1c0.2,0.3,0.1,0.1,0.1,0.1c0,0.7-0.1,1.1-0.5,1.6c-0.4,0.4-0.8,0.8-1.4,1.1
		c-0.6,0.3-1.2,0.5-2,0.6c-0.7,0.1-20.8,0.2-21.6,0.2L93.1,24.9z"/>
	<path d="M94.9,8.4c1.8,0,3.2,0.5,4.3,1.6c1,1.1,1.6,2.5,1.6,4.4c0,0.7-0.1,1.5-0.3,2.3h-8c0,0.8,0.3,1.5,0.9,2
		c0.5,0.5,1.3,0.8,2.5,0.8c0.7,0,1.4-0.1,2.1-0.2s1.4-0.3,1.9-0.5l0.6,2.7c-0.7,0.4-1.5,0.6-2.4,0.8c-0.9,0.2-1.8,0.3-2.8,0.3
		c-1.2,0-2.2-0.2-3.2-0.5c-0.9-0.3-1.7-0.8-2.3-1.4c-0.6-0.6-1.1-1.4-1.4-2.2c-0.3-0.9-0.5-1.8-0.5-2.9s0.2-2.1,0.5-3
		s0.8-1.7,1.4-2.3c0.6-0.6,1.3-1.1,2.2-1.4C92.9,8.5,93.9,8.4,94.9,8.4z M94.8,11.2c-0.7,0-1.3,0.2-1.6,0.7
		c-0.4,0.5-0.6,1.1-0.6,1.9h4c0-0.1,0.1-0.3,0.1-0.5c0-0.6-0.2-1.1-0.5-1.5C95.8,11.4,95.4,11.2,94.8,11.2z"/>
	<path d="M115.7,22.4h-4.3v-1.7c-0.4,0.6-1,1.1-1.7,1.5s-1.5,0.5-2.5,0.5c-0.8,0-1.5-0.2-2.2-0.5s-1.3-0.8-1.8-1.4s-0.9-1.3-1.2-2.2
		c-0.3-0.9-0.4-1.8-0.4-2.9c0-1.2,0.2-2.2,0.6-3.2c0.4-0.9,0.9-1.7,1.5-2.3c0.6-0.6,1.4-1.1,2.3-1.4s1.8-0.5,2.7-0.5
		c0.5,0,0.9,0,1.3,0.1s0.7,0.1,1,0.2V2.5h4.5v19.9H115.7z M108.9,19.2c1,0,1.7-0.3,2.3-1v-6.3c-0.4-0.1-0.9-0.2-1.6-0.2
		c-1.1,0-2,0.3-2.5,1c-0.6,0.7-0.8,1.6-0.8,2.8c0,1.1,0.2,1.9,0.6,2.6S108,19.2,108.9,19.2z"/>
	<path d="M49.5,12.6L49.5,12.6c-1.9,0-2.1,0.6-2.8,1.5v8.3h-4.5V13c0-2.4,1.9-4.3,4.3-4.3l0,0l0,0h1.3h4.9L49.5,12.6z"/>
</g>
<path d="M76.7,21.9c0,0,0.5,0.3,1.9,0.5"/>
<rect x="1321.4" y="-553.4" class="st1" width="15" height="15"/>
<rect x="817.2" y="-676.2" class="st0" width="12.1" height="12.1"/>
<rect x="823.1" y="-683.3" class="st1" width="12.1" height="12.1"/>
<rect x="1336.4" y="-553.4" class="st0" width="15" height="15"/>
<path d="M1323.1-534.2c0.9,0,21.7,0,21.7,0h0.3h6.1c0.2,0.3,0.2,0.1,0.2,0.1c0,0.7-0.2,1.1-0.6,1.6c-0.4,0.4-1,0.8-1.7,1.1
	s-1.5,0.5-2.4,0.6c-0.9,0.1-26.2,0.2-27.1,0.2L1323.1-534.2z"/>
<path d="M828.8-666.4v-7.3l4.3-5.1c0.1-0.1,0.2,0,0.2,0.1v12.3H828.8z"/>
<path d="M826.3-676.2L826.3-676.2c-1,0-1.5,0.2-1.9,0.4c-0.7,0.5-1,1.3-1,2.1v7.3h-4.5v-9.4c0-2.4,1.9-4.3,4.3-4.3l0,0l0,0h1.3h4.9
	L826.3-676.2z"/>
<g>
	<rect x="577.9" y="16.3" class="st0" width="176.4" height="176.4"/>
	<rect x="677" y="-81.5" class="st1" width="176.4" height="176.4"/>
</g>
<g>
	<path d="M754.3,156.2V49.3l62.3-75c1-1.2,3-0.5,3,1.1v180.8L754.3,156.2L754.3,156.2z"/>
	<path d="M718.2,12.4h-1.3c-12.9,0-20.3,2.3-25.8,6.2c-9.7,7-14.3,19.1-14.3,31.1V156h-65.3V19.3c0-34.9,28.3-63.2,63.2-63.2l0,0
		l0,0h18.5h72L718.2,12.4z"/>
</g>
<path class="st0" d="M1282.5-658.6v0.5H1263v-32.1h-13.7c0,0.5-0.1,1-0.1,1.5v30.3h14.5v-15.4h17.2v15.2H1282.5z"/>
<path class="st0" d="M1282.5-689.6v31.5h-1.7v-15.2h-17.2v15.4h-14.5v-30.3c0-0.5,0-1,0.1-1.5L1282.5-689.6L1282.5-689.6z"/>
<path class="st1" d="M1295.3-702.3v29.1l0,0v-24.6c0-0.4-0.5-0.5-0.7-0.2l-12.1,14.5v-6h-11.9c0.6-0.1,1.2-0.1,1.9-0.1h0.3
	l10.4-12.5h-20c-0.2,0-0.4,0-0.5,0v-0.2H1295.3z"/>
<path class="st1" d="M1295.3-697.9v24.6h-32.6v-28.9c0.2,0,0.3,0,0.5,0h20l-10.4,12.5h-0.3c-0.7,0-1.4,0-1.9,0.1h11.9v6l12.1-14.6
	C1294.9-698.4,1295.3-698.2,1295.3-697.9z"/>
<path d="M1294.6-698.1l-12.1,14.6l-1.7,2v23.5h14.5v-39.8C1295.3-698.2,1294.9-698.4,1294.6-698.1z"/>
<path d="M1263.2-702.2c-0.2,0-0.4,0-0.5,0c-7,0.3-12.7,5.7-13.4,12.6c0,0.5-0.1,1-0.1,1.5v30.3h14.5v-23.5c0-2.6,1-5.3,3.2-6.9
	c0.9-0.7,2.1-1.1,3.8-1.3c0.6-0.1,1.2-0.1,1.9-0.1h0.3l10.4-12.5L1263.2-702.2L1263.2-702.2z"/>
<path class="st0" d="M1281.8-720.8v0.5h-19.5v-32.1h-13.7c0,0.5-0.1,1-0.1,1.5v30.3h14.5V-736h17.2v15.2H1281.8z"/>
<path class="st0" d="M1280.1-740.8v20.6l0,0v-15.3h-17.2v15.4h-14.4v-30.3c0-0.5,0-1,0.1-1.5h22.3
	C1276.9-751.8,1280.1-746.9,1280.1-740.8z"/>
<path class="st1" d="M1280.1-743.7v8.2l-18.2,0.1v-28.4c0.2-0.2,0.3-0.3,0.5-0.5h20l-10.4,12.5h-0.3c-0.7,0,0.9-0.1,0.3,0l2.2,0.1
	C1278.7-751.1,1280.7-746.2,1280.1-743.7l1.7-1.9L1280.1-743.7C1280.4-744,1280.1-744.1,1280.1-743.7z"/>
<path d="M1293.9-760.3l-12.1,14.6l-1.7,2v23.5h14.5V-760C1294.6-760.5,1294.2-760.6,1293.9-760.3z"/>
<path d="M1262.5-764.4c-0.2,0-0.4,0-0.5,0c-7,0.3-12.7,5.7-13.4,12.6c0,0.5-0.1,1-0.1,1.5v30.3h14.5v-23.5c0-2.6,1-5.3,3.2-6.9
	c0.9-0.7,2.1-1.1,3.8-1.3c0.6-0.1,1.5-0.1,2.2-0.1l0,0l10.4-12.5L1262.5-764.4L1262.5-764.4z"/>
<path d="M52,22.4v-7.3l4.3-5.1c0.1-0.1,0.2,0,0.2,0.1v12.3H52z"/>
<path d="M49.5,12.6L49.5,12.6c-1,0-1.5,0.2-1.9,0.4c-0.7,0.5-1,1.3-1,2.1v7.4h-4.5v-9.4c0-2.4,1.9-4.3,4.3-4.3l0,0l0,0h1.3h4.9
	L49.5,12.6z"/>
</svg>
