<svg width="846" height="104" viewBox="0 0 846 104" fill="none" xmlns="http://www.w3.org/2000/svg">
<path d="M14.66 99.3153L49.97 0.535248H35.34L0.0300007 99.3153H14.66ZM108.557 58.3953V42.7753H73.357V58.3953H108.557ZM170.774 49.9253C170.774 28.4752 160.324 9.77525 147.894 0.535248H131.614C145.254 9.88525 157.134 25.9452 157.134 44.3153V55.5353C157.134 73.9053 145.254 89.9653 131.614 99.3153H147.894C160.324 90.0753 170.774 71.3753 170.774 49.9253ZM293.998 78.5253C289.158 82.9986 283.401 85.2353 276.728 85.2353C271.228 85.2353 266.865 83.7686 263.638 80.8353C260.411 77.8286 258.798 73.9419 258.798 69.1753C258.798 63.0153 261.621 58.0653 267.268 54.3253C272.915 50.5853 280.688 48.6053 290.588 48.3853L294.548 48.0553C294.988 48.0553 295.355 47.9453 295.648 47.7253C296.015 47.4319 296.198 47.0286 296.198 46.5153V44.2053C296.198 41.3453 295.391 39.1453 293.778 37.6053C292.165 36.0653 289.855 35.2952 286.848 35.2952C281.715 35.2952 277.901 37.4953 275.408 41.8953C275.115 42.6286 274.638 42.9953 273.978 42.9953C273.611 42.9953 273.281 42.9586 272.988 42.8853L261.988 40.3553C261.328 40.2086 260.998 39.8053 260.998 39.1453C260.998 38.7053 261.145 38.1553 261.438 37.4953C263.198 33.2419 266.315 30.0519 270.788 27.9252C275.335 25.7986 280.945 24.7353 287.618 24.7353C296.345 24.7353 302.651 26.3486 306.538 29.5753C310.425 32.7286 312.368 37.2386 312.368 43.1053V81.7153C312.368 82.5953 312.221 83.2186 311.928 83.5853C311.635 83.9519 311.085 84.1353 310.278 84.1353H298.948C298.215 84.1353 297.665 83.8786 297.298 83.3653C297.005 82.8519 296.785 82.0819 296.638 81.0553L296.528 78.6353C296.455 77.9753 296.161 77.6453 295.648 77.6453C295.355 77.6453 294.805 77.9386 293.998 78.5253ZM296.198 58.1753C296.198 57.5153 296.088 57.0386 295.868 56.7453C295.648 56.4519 295.208 56.3053 294.548 56.3053L291.468 56.5253C287.215 56.7453 283.438 57.7719 280.138 59.6053C276.911 61.3653 275.298 63.8219 275.298 66.9753C275.298 69.1753 276.068 70.9353 277.608 72.2553C279.148 73.5019 281.275 74.1253 283.988 74.1253C287.361 74.1253 290.221 73.1353 292.568 71.1553C294.988 69.2486 296.198 67.3053 296.198 65.3253V58.1753ZM326.391 84.1353C325.511 84.1353 324.851 83.9519 324.411 83.5853C324.044 83.1453 323.861 82.5219 323.861 81.7153V4.60525C323.861 3.94525 324.007 3.43191 324.301 3.06525C324.667 2.69858 325.144 2.51525 325.731 2.51525H339.151C340.251 2.51525 340.801 3.17525 340.801 4.49525V30.1253C340.801 31.0053 341.057 31.4453 341.571 31.4453C341.864 31.4453 342.267 31.2619 342.781 30.8953C347.181 26.7886 352.314 24.7353 358.181 24.7353C365.514 24.7353 371.161 27.4486 375.121 32.8753C379.154 38.3019 381.171 45.5619 381.171 54.6553C381.171 64.1153 378.971 71.5953 374.571 77.0953C370.171 82.5219 364.011 85.2353 356.091 85.2353C352.351 85.2353 348.977 84.3919 345.971 82.7053C343.037 81.0186 340.617 78.8919 338.711 76.3253C338.344 75.9586 338.087 75.7753 337.941 75.7753C337.721 75.7753 337.537 76.0686 337.391 76.6553L336.071 81.9353C335.851 82.7419 335.557 83.3286 335.191 83.6953C334.824 83.9886 334.274 84.1353 333.541 84.1353H326.391ZM340.801 64.0053C340.801 67.1586 341.864 69.7619 343.991 71.8153C346.191 73.8686 348.794 74.8953 351.801 74.8953C359.867 74.8953 363.901 68.2219 363.901 54.8753C363.901 48.2019 362.911 43.3253 360.931 40.2453C359.024 37.0919 356.127 35.5153 352.241 35.5153C347.841 35.5153 344.027 37.4586 340.801 41.3453V64.0053ZM393.202 84.1353C391.662 84.1353 390.892 83.4019 390.892 81.9353V27.9252C390.892 26.5319 391.478 25.8353 392.652 25.8353H405.522C406.695 25.8353 407.282 26.4586 407.282 27.7053V34.1953C407.282 34.4886 407.355 34.7086 407.502 34.8553C407.648 35.0019 407.795 35.0753 407.942 35.0753C408.162 35.0753 408.455 34.8919 408.822 34.5253C411.022 31.5919 413.625 29.2453 416.632 27.4852C419.638 25.6519 422.498 24.7353 425.212 24.7353C427.852 24.7353 429.172 25.3586 429.172 26.6053V39.3653C429.172 39.8786 429.025 40.2819 428.732 40.5753C428.438 40.8686 428.035 40.9419 427.522 40.7953C425.175 40.2086 422.608 39.9153 419.822 39.9153C417.988 39.9153 416.118 40.3919 414.212 41.3453C412.378 42.2253 410.838 43.4353 409.592 44.9753C408.418 46.4419 407.832 47.9453 407.832 49.4853V81.6053C407.832 83.2919 406.878 84.1353 404.972 84.1353H393.202ZM454.888 16.0453C454.888 17.8786 453.898 18.7952 451.918 18.7952H440.038C439.158 18.7952 438.534 18.6119 438.168 18.2452C437.801 17.8053 437.618 17.1453 437.618 16.2652V4.71525C437.618 3.24858 438.241 2.51525 439.488 2.51525H453.128C453.641 2.51525 454.044 2.69858 454.338 3.06525C454.704 3.43191 454.888 3.94525 454.888 4.60525V16.0453ZM454.668 81.4953C454.668 82.4486 454.448 83.1453 454.008 83.5853C453.568 83.9519 452.798 84.1353 451.698 84.1353H440.148C439.268 84.1353 438.644 83.9519 438.278 83.5853C437.911 83.2186 437.728 82.6319 437.728 81.8253V27.9252C437.728 26.5319 438.351 25.8353 439.598 25.8353H453.018C454.118 25.8353 454.668 26.4586 454.668 27.7053V81.4953ZM507.319 84.1353C505.779 84.1353 505.009 83.4019 505.009 81.9353V78.8553C505.009 78.2686 504.826 77.9753 504.459 77.9753C504.239 77.9753 503.909 78.1219 503.469 78.4153C501.342 80.4686 498.996 82.1186 496.429 83.3653C493.936 84.6119 490.929 85.2353 487.409 85.2353C480.516 85.2353 474.942 82.6686 470.689 77.5353C466.509 72.4019 464.419 65.0319 464.419 55.4253C464.419 49.4119 465.482 44.0953 467.609 39.4753C469.809 34.7819 472.742 31.1519 476.409 28.5853C480.076 26.0186 484.109 24.7353 488.509 24.7353C491.369 24.7353 493.936 25.2119 496.209 26.1653C498.556 27.1186 500.792 28.5853 502.919 30.5653C503.432 30.9319 503.799 31.1153 504.019 31.1153C504.532 31.1153 504.789 30.6386 504.789 29.6853V4.49525C504.789 3.17525 505.376 2.51525 506.549 2.51525H519.969C520.482 2.51525 520.886 2.69858 521.179 3.06525C521.546 3.43191 521.729 3.94525 521.729 4.60525V81.8253C521.729 82.6319 521.546 83.2186 521.179 83.5853C520.812 83.9519 520.152 84.1353 519.199 84.1353H507.319ZM504.789 41.0153C503.102 39.1819 501.416 37.8253 499.729 36.9453C498.116 36.0653 496.282 35.6253 494.229 35.6253C490.342 35.6253 487.262 37.2386 484.989 40.4653C482.716 43.6186 481.579 48.5319 481.579 55.2053C481.579 61.9519 482.679 66.9019 484.879 70.0553C487.079 73.1353 490.122 74.6753 494.009 74.6753C496.942 74.6753 499.472 73.7219 501.599 71.8153C503.726 69.8353 504.789 67.5619 504.789 64.9953V41.0153ZM592.83 23.3053C594.297 23.3053 595.03 24.1119 595.03 25.7253V33.2053C595.03 35.2586 594.187 36.1019 592.5 35.7353C591.4 35.5153 590.337 35.4053 589.31 35.4053C588.724 35.4053 588.064 35.4786 587.33 35.6253C585.424 35.9186 584.69 36.7619 585.13 38.1553C585.79 40.1353 586.12 41.7853 586.12 43.1053C586.12 46.4786 585.094 49.5219 583.04 52.2353C581.06 54.9486 578.054 57.1119 574.02 58.7253C570.06 60.3386 565.257 61.1453 559.61 61.1453C555.504 61.1453 552.46 61.4753 550.48 62.1353C548.574 62.7953 547.62 63.6753 547.62 64.7753C547.62 65.7286 548.134 66.4253 549.16 66.8653C550.26 67.2319 552.057 67.4886 554.55 67.6353L570.28 68.5153C577.54 68.9553 582.93 70.5686 586.45 73.3553C590.044 76.1419 591.84 79.8453 591.84 84.4653C591.84 90.1853 589.127 94.7686 583.7 98.2153C578.274 101.662 570.574 103.385 560.6 103.385C539.26 103.385 528.59 98.6553 528.59 89.1953C528.59 86.8486 529.507 84.8686 531.34 83.2553C533.174 81.5686 535.777 80.1019 539.15 78.8553C539.59 78.7086 539.81 78.5253 539.81 78.3053C539.81 78.0853 539.59 77.8653 539.15 77.6453C534.897 75.5919 532.77 72.8786 532.77 69.5053C532.77 67.5253 533.724 65.6919 535.63 64.0053C537.61 62.2453 540.214 60.7419 543.44 59.4953C544.32 59.0553 544.394 58.6153 543.66 58.1753C536.547 54.8753 532.99 49.8886 532.99 43.2153C532.99 37.6419 535.374 33.2053 540.14 29.9053C544.98 26.6052 551.874 24.9552 560.82 24.9552C568.374 24.9552 574.24 26.6052 578.42 29.9053C578.934 30.2719 579.41 30.4553 579.85 30.4553C580.437 30.4553 580.95 30.1986 581.39 29.6853C582.784 27.9986 584.617 26.5319 586.89 25.2853C589.164 23.9653 591.144 23.3053 592.83 23.3053ZM559.5 52.7853C563.24 52.7853 566.027 51.9419 567.86 50.2553C569.767 48.4953 570.72 46.2219 570.72 43.4353C570.72 40.3553 569.767 37.9353 567.86 36.1753C566.027 34.3419 563.24 33.4253 559.5 33.4253C555.98 33.4253 553.194 34.3419 551.14 36.1753C549.16 38.0086 548.17 40.4286 548.17 43.4353C548.17 46.2219 549.16 48.4953 551.14 50.2553C553.194 51.9419 555.98 52.7853 559.5 52.7853ZM551.36 80.8353C549.087 80.6886 547.034 81.2386 545.2 82.4853C543.44 83.6586 542.56 85.1619 542.56 86.9953C542.56 89.7086 544.064 91.7619 547.07 93.1553C550.077 94.5486 554.954 95.2453 561.7 95.2453C566.614 95.2453 570.39 94.5486 573.03 93.1553C575.67 91.8353 576.99 89.9286 576.99 87.4353C576.99 85.7486 576.257 84.3919 574.79 83.3653C573.324 82.3386 571.16 81.7519 568.3 81.6053L551.36 80.8353ZM615.966 59.9353C615.966 64.0419 617.323 67.3786 620.036 69.9453C622.823 72.4386 626.27 73.6853 630.376 73.6853C633.016 73.6853 635.436 73.1353 637.636 72.0353C639.91 70.8619 642.183 68.9553 644.456 66.3153C644.75 66.0219 645.043 65.8753 645.336 65.8753C645.556 65.8753 645.923 65.9853 646.436 66.2053L654.356 69.5053C654.87 69.7253 655.126 70.0919 655.126 70.6053C655.126 70.9719 654.98 71.3386 654.686 71.7053C651.166 76.6919 647.39 80.2119 643.356 82.2653C639.323 84.2453 634.3 85.2353 628.286 85.2353C622.64 85.2353 617.543 83.9886 612.996 81.4953C608.45 79.0019 604.893 75.5553 602.326 71.1553C599.76 66.6819 598.476 61.5853 598.476 55.8653C598.476 49.7053 599.796 44.2786 602.436 39.5853C605.076 34.8186 608.633 31.1519 613.106 28.5853C617.653 26.0186 622.603 24.7353 627.956 24.7353C633.53 24.7353 638.48 25.9819 642.806 28.4752C647.133 30.8953 650.506 34.4153 652.926 39.0353C655.346 43.6553 656.556 49.1553 656.556 55.5353C656.556 56.4886 656.446 57.1486 656.226 57.5153C656.08 57.8819 655.566 58.1019 654.686 58.1753H617.286C616.406 58.1753 615.966 58.7619 615.966 59.9353ZM638.076 48.9353C638.883 48.9353 639.396 48.8619 639.616 48.7153C639.836 48.4953 639.946 48.0553 639.946 47.3953C639.946 45.4886 639.506 43.5819 638.626 41.6753C637.746 39.7686 636.463 38.1919 634.776 36.9453C633.09 35.6986 631.036 35.0753 628.616 35.0753C624.95 35.0753 621.943 36.3586 619.596 38.9253C617.25 41.4919 616.113 44.7919 616.186 48.8253L638.076 48.9353ZM706.05 84.1353C704.51 84.1353 703.74 83.4019 703.74 81.9353V78.8553C703.74 78.2686 703.556 77.9753 703.19 77.9753C702.97 77.9753 702.64 78.1219 702.2 78.4153C700.073 80.4686 697.726 82.1186 695.16 83.3653C692.666 84.6119 689.66 85.2353 686.14 85.2353C679.246 85.2353 673.673 82.6686 669.42 77.5353C665.24 72.4019 663.15 65.0319 663.15 55.4253C663.15 49.4119 664.213 44.0953 666.34 39.4753C668.54 34.7819 671.473 31.1519 675.14 28.5853C678.806 26.0186 682.84 24.7353 687.24 24.7353C690.1 24.7353 692.666 25.2119 694.94 26.1653C697.286 27.1186 699.523 28.5853 701.65 30.5653C702.163 30.9319 702.53 31.1153 702.75 31.1153C703.263 31.1153 703.52 30.6386 703.52 29.6853V4.49525C703.52 3.17525 704.106 2.51525 705.28 2.51525H718.7C719.213 2.51525 719.616 2.69858 719.91 3.06525C720.276 3.43191 720.46 3.94525 720.46 4.60525V81.8253C720.46 82.6319 720.276 83.2186 719.91 83.5853C719.543 83.9519 718.883 84.1353 717.93 84.1353H706.05ZM703.52 41.0153C701.833 39.1819 700.146 37.8253 698.46 36.9453C696.846 36.0653 695.013 35.6253 692.96 35.6253C689.073 35.6253 685.993 37.2386 683.72 40.4653C681.446 43.6186 680.31 48.5319 680.31 55.2053C680.31 61.9519 681.41 66.9019 683.61 70.0553C685.81 73.1353 688.853 74.6753 692.74 74.6753C695.673 74.6753 698.203 73.7219 700.33 71.8153C702.456 69.8353 703.52 67.5619 703.52 64.9953V41.0153ZM749.431 81.4953C749.431 82.4486 749.174 83.1453 748.661 83.5853C748.221 83.9519 747.451 84.1353 746.351 84.1353H733.371C731.757 84.1353 730.951 83.3653 730.951 81.8253V67.8553C730.951 67.1953 731.097 66.7186 731.391 66.4253C731.757 66.0586 732.197 65.8753 732.711 65.8753H747.781C748.881 65.8753 749.431 66.4986 749.431 67.7453V81.4953ZM777.368 16.0453C777.368 17.8786 776.378 18.7952 774.398 18.7952H762.518C761.638 18.7952 761.015 18.6119 760.648 18.2452C760.282 17.8053 760.098 17.1453 760.098 16.2652V4.71525C760.098 3.24858 760.722 2.51525 761.968 2.51525H775.608C776.122 2.51525 776.525 2.69858 776.818 3.06525C777.185 3.43191 777.368 3.94525 777.368 4.60525V16.0453ZM777.148 81.4953C777.148 82.4486 776.928 83.1453 776.488 83.5853C776.048 83.9519 775.278 84.1353 774.178 84.1353H762.628C761.748 84.1353 761.125 83.9519 760.758 83.5853C760.392 83.2186 760.208 82.6319 760.208 81.8253V27.9252C760.208 26.5319 760.832 25.8353 762.078 25.8353H775.498C776.598 25.8353 777.148 26.4586 777.148 27.7053V81.4953ZM816.16 85.2353C810.366 85.2353 805.233 83.9886 800.76 81.4953C796.36 78.9286 792.913 75.3719 790.42 70.8253C787.926 66.2786 786.68 61.1086 786.68 55.3153C786.68 49.3019 787.926 43.9853 790.42 39.3653C792.986 34.7453 796.506 31.1519 800.98 28.5853C805.526 26.0186 810.623 24.7353 816.27 24.7353C822.063 24.7353 827.196 26.0553 831.67 28.6953C836.143 31.2619 839.59 34.8553 842.01 39.4753C844.503 44.0953 845.75 49.3386 845.75 55.2053C845.75 60.9986 844.503 66.1686 842.01 70.7153C839.516 75.2619 836.033 78.8186 831.56 81.3853C827.086 83.9519 821.953 85.2353 816.16 85.2353ZM816.27 74.0153C820.303 74.0153 823.346 72.4386 825.4 69.2853C827.526 66.0586 828.59 61.2919 828.59 54.9853C828.59 48.6053 827.526 43.8019 825.4 40.5753C823.346 37.2753 820.303 35.6253 816.27 35.6253C812.236 35.6253 809.156 37.2753 807.03 40.5753C804.903 43.8019 803.84 48.6053 803.84 54.9853C803.84 61.2186 804.903 65.9486 807.03 69.1753C809.156 72.4019 812.236 74.0153 816.27 74.0153Z" fill="black"/>
</svg>
