<?xml version="1.0" encoding="utf-8"?>
<!-- Generator: Adobe Illustrator 22.0.0, SVG Export Plug-In . SVG Version: 6.00 Build 0)  -->
<svg version="1.1" id="Layer_1" xmlns="http://www.w3.org/2000/svg" xmlns:xlink="http://www.w3.org/1999/xlink" x="0px" y="0px"
	 viewBox="0 0 25 23" style="enable-background:new 0 0 25 23;" xml:space="preserve">
<path d="M8.3,22.4c-2.6,0-5.3-0.8-7.7-2.3C0.2,19.9,0,19.4,0.1,19c0.1-0.4,0.5-0.8,0.9-0.8c1.7,0.1,3.4-0.3,4.9-1.1
	c-3.7-2.5-4.7-5.9-4.8-8.6C1,5.4,2,2.8,2.1,2.7c0.1-0.3,0.4-0.6,0.8-0.6s0.7,0.1,0.9,0.4C5.5,5.1,8.1,6.7,11,6.9
	c0-1.7,0.7-3.3,1.9-4.5c2.1-1.9,5.2-1.9,7.3,0c0.8-0.3,1.6-0.8,2.3-1.3c0.3-0.2,0.8-0.2,1.1,0c0.3,0.2,0.5,0.8,0.4,1.2
	c-0.3,1.5-1,2.9-2,4.1c0,0.2,0,0.3,0,0.5c0,5.9-2.4,10.9-6.7,13.5C13.2,21.8,10.8,22.4,8.3,22.4z M5,19.8c3.3,0.9,6.6,0.4,9.4-1.3
	c3.6-2.3,5.7-6.6,5.7-11.6c0-0.2,0-0.4-0.1-0.6c-0.1-0.3,0-0.8,0.3-1c0.2-0.2,0.4-0.5,0.6-0.8c-0.2,0.1-0.5,0.2-0.7,0.2
	c-0.4,0.1-0.8,0-1-0.3c-1.3-1.5-3.5-1.7-4.9-0.3C13.4,4.8,13,5.8,13,6.9V8c0,0.5-0.4,1.1-1,1.1C8.7,9.2,5.6,7.8,3.4,5.3
	c-0.6,2.8-0.8,8.1,5,10.8C8.7,16.3,9,16.6,9,17c0,0.4-0.1,0.8-0.4,1C7.4,18.9,6.2,19.5,5,19.8z"/>
</svg>
