<?xml version="1.0" encoding="utf-8"?>
<!-- Generator: Adobe Illustrator 22.0.0, SVG Export Plug-In . SVG Version: 6.00 Build 0)  -->
<svg version="1.1" id="Layer_1" xmlns="http://www.w3.org/2000/svg" xmlns:xlink="http://www.w3.org/1999/xlink" x="0px" y="0px"
	 viewBox="0 0 22 26" style="enable-background:new 0 0 22 26;" xml:space="preserve">
<path d="M15.3,25.1c-0.6,0-1-0.4-1-1.1v-4.2c0.1-0.9-0.2-1.5-0.7-2c-0.3-0.3-0.4-0.8-0.2-1.1c0.1-0.4,0.5-0.6,0.8-0.8
	c2.9-0.3,5.6-1.4,5.6-6.5c0-1.2-0.4-2.4-1.2-3.3c-0.3-0.3-0.3-0.8-0.2-1.1c0.3-0.9,0.3-1.7,0.1-2.6c-0.5,0.1-1.3,0.4-2.6,1.4
	c-0.2,0.2-0.5,0.2-0.8,0.1C13,3.3,10.7,3.3,8.6,4C8.3,4.1,8,4.1,7.7,3.9c-1.2-1-2.1-1.3-2.6-1.4C4.9,3.3,4.9,4.2,5.2,5.1
	C5.3,5.5,5.3,5.9,5,6.1c-0.8,1-1.2,2.2-1.2,3.3c0,5.1,2.7,6.1,5.6,6.5c0.4,0,0.7,0.3,0.8,0.8c0.1,0.4,0,0.9-0.2,1.1
	c-0.5,0.5-0.7,1.2-0.7,1.9v1v0.1v3.1c0,0.6-0.4,1.1-1,1.1s-1-0.4-1-1.1v-1.8c-3,0.5-4.3-1.3-5.2-2.5c-0.4-0.5-0.7-1-1.1-1.1
	c-0.5-0.1-0.9-0.8-0.7-1.3c0.1-0.5,0.7-1,1.2-0.8c1,0.3,1.6,1.1,2.2,1.8c0.8,1.2,1.5,2,3.6,1.6v-0.1c0-0.6,0.1-1.4,0.3-1.9
	c-2.8-0.6-5.8-2.6-5.8-8.3c0-1.6,0.5-3.1,1.4-4.3C2.8,3.8,2.9,2.4,3.5,1c0.1-0.3,0.3-0.5,0.6-0.6C4.5,0.2,5.8,0,8.5,1.8
	c2.2-0.5,4.5-0.5,6.6,0c2.6-1.8,4-1.6,4.4-1.5C19.8,0.4,20,0.6,20.1,1c0.5,1.4,0.6,2.8,0.3,4.2c0.9,1.2,1.4,2.7,1.4,4.3
	c0,6.1-3.4,7.8-5.8,8.4c0.2,0.6,0.3,1.4,0.3,2V24C16.3,24.7,15.9,25.1,15.3,25.1z"/>
</svg>
