<svg id="Layer_1" data-name="Layer 1" xmlns="http://www.w3.org/2000/svg" viewBox="0 0 380 1222"><defs><style>.cls-1{fill:none;stroke:#820cf4;stroke-linecap:round;stroke-miterlimit:10;stroke-width:22px;}</style></defs><title>road-three</title><line class="cls-1" x1="331.14" y1="1196.55" x2="332.6" y2="357.15"/><line class="cls-1" x1="276.54" y1="867.63" x2="278" y2="28.24"/><line class="cls-1" x1="193.97" y1="1004.28" x2="195.43" y2="164.89"/><line class="cls-1" x1="118.97" y1="1113.05" x2="120.43" y2="273.66"/><line class="cls-1" x1="44.46" y1="991.52" x2="45.92" y2="152.12"/><line class="cls-1" x1="276.33" y1="990.53" x2="276.45" y2="924.41"/><line class="cls-1" x1="121.14" y1="220.1" x2="121.26" y2="153.98"/><line class="cls-1" x1="193.82" y1="1087.56" x2="193.88" y2="1053.92"/><line class="cls-1" x1="276.19" y1="1072.08" x2="276.25" y2="1038.45"/><line class="cls-1" x1="44.32" y1="1072.58" x2="44.38" y2="1038.94"/><line class="cls-1" x1="196.17" y1="113.27" x2="196.22" y2="79.64"/><line class="cls-1" x1="193.78" y1="1145" x2="193.81" y2="1128.27"/><line class="cls-1" x1="333.27" y1="308.6" x2="333.3" y2="291.87"/><line class="cls-1" x1="46.64" y1="104.47" x2="46.67" y2="87.74"/><line class="cls-1" x1="118.83" y1="1192.91" x2="118.89" y2="1159.28"/></svg>